<?xml version="1.0" standalone="no"?>
<!DOCTYPE svg PUBLIC "-//W3C//DTD SVG 20010904//EN"
 "http://www.w3.org/TR/2001/REC-SVG-20010904/DTD/svg10.dtd">
<svg version="1.0" xmlns="http://www.w3.org/2000/svg"
 width="1417.000000pt" height="1417.000000pt" viewBox="0 0 1417.000000 1417.000000"
 preserveAspectRatio="xMidYMid meet">
<metadata>
Created by potrace 1.16, written by Peter Selinger 2001-2019
</metadata>
<g transform="translate(0.000000,1417.000000) scale(0.100000,-0.100000)"
fill="#000000" stroke="none">
<path d="M10050 11650 c-14 -4 -77 -20 -140 -35 -113 -27 -152 -43 -260 -109
-72 -44 -274 -244 -325 -321 -22 -33 -49 -71 -60 -85 -32 -40 -155 -299 -155
-326 0 -8 -11 -34 -23 -57 -45 -81 -69 -173 -82 -322 -3 -27 -7 -63 -9 -80 -2
-16 -5 -111 -6 -210 -1 -156 3 -198 25 -310 22 -116 33 -144 91 -260 37 -71
79 -148 94 -170 15 -22 39 -63 53 -91 26 -52 130 -157 167 -169 11 -3 20 -10
20 -15 0 -14 262 -138 325 -154 33 -8 92 -27 130 -41 39 -15 94 -33 123 -41
92 -24 292 -14 398 21 81 27 294 147 338 190 23 22 64 58 91 80 62 49 66 55
60 83 -4 14 -1 22 8 22 18 0 138 147 199 244 19 30 66 135 72 161 4 17 20 57
36 90 39 82 79 230 78 290 -1 28 4 117 11 199 12 168 7 285 -19 401 -10 44
-23 107 -30 140 -13 62 -81 238 -132 338 -16 32 -50 85 -75 118 -53 68 -220
208 -273 229 -19 7 -39 17 -45 21 -5 4 -55 24 -110 44 -55 21 -104 41 -110 45
-21 15 -134 51 -222 70 -95 20 -198 25 -243 10z m195 -45 c33 -7 85 -18 115
-24 30 -7 83 -25 117 -41 35 -17 68 -30 74 -30 11 0 83 -30 175 -71 22 -11 43
-19 47 -19 3 0 32 -18 64 -40 82 -57 177 -154 228 -230 42 -65 132 -275 153
-360 52 -206 57 -239 56 -405 -1 -392 -10 -465 -78 -619 -14 -32 -26 -63 -26
-68 0 -5 -16 -43 -35 -84 -19 -41 -35 -77 -35 -79 0 -13 -105 -158 -159 -220
-34 -38 -61 -75 -61 -81 0 -7 -16 -25 -36 -40 -19 -16 -60 -51 -90 -78 -30
-27 -67 -56 -84 -65 -16 -9 -60 -34 -97 -56 -112 -66 -163 -84 -291 -105 -75
-12 -208 -8 -272 9 -72 19 -113 33 -158 53 -26 12 -52 22 -58 23 -159 34 -354
140 -457 249 -46 49 -131 184 -198 316 -60 119 -67 138 -79 214 -5 33 -12 72
-15 86 -46 178 -3 737 65 840 22 34 40 78 40 97 0 21 127 278 145 293 8 7 15
16 15 21 0 27 170 220 272 309 99 86 248 161 368 185 47 9 96 21 110 26 36 11
115 9 185 -6z"/>
<path d="M9870 11371 c-58 -21 -130 -52 -161 -70 -215 -122 -426 -462 -500
-806 -20 -92 -29 -344 -16 -430 3 -22 9 -58 12 -80 38 -268 102 -428 237 -590
99 -118 182 -179 393 -288 83 -43 168 -54 330 -43 284 20 501 139 660 361 52
72 157 273 214 407 59 141 113 346 115 438 1 41 5 81 10 88 5 8 4 23 -3 35 -5
12 -22 70 -36 129 -38 163 -93 291 -149 351 -6 7 -23 31 -39 54 -35 54 -158
177 -265 263 -100 80 -228 154 -297 169 -27 6 -79 19 -115 28 -38 10 -110 18
-175 19 -105 3 -115 1 -215 -35z m354 -20 c17 -6 60 -15 96 -21 80 -14 189
-66 271 -128 34 -26 76 -57 93 -70 68 -49 190 -180 260 -277 61 -84 80 -121
109 -206 19 -57 38 -121 41 -142 4 -21 10 -45 13 -53 4 -10 0 -12 -10 -8 -10
3 -19 24 -22 52 -15 104 -17 112 -38 112 -12 0 -38 -37 -66 -92 -13 -26 -17
-27 -85 -25 -39 1 -105 -1 -146 -5 -69 -7 -253 -11 -378 -9 -33 1 -54 6 -56
14 -36 137 -83 200 -179 235 -32 12 -63 22 -68 22 -7 0 -9 13 -4 38 4 20 8 38
9 39 1 2 18 -2 37 -7 23 -7 55 -7 101 1 57 9 72 16 98 45 29 33 66 104 70 134
5 36 -1 49 -25 52 -17 2 -22 7 -17 16 7 9 20 9 63 -4 70 -21 129 -82 175 -182
19 -39 34 -77 34 -83 0 -9 25 -105 67 -252 12 -42 21 -57 32 -55 22 4 21 20
-7 108 -13 41 -33 111 -44 155 -29 118 -89 233 -151 292 -47 45 -60 51 -134
67 -60 13 -101 16 -149 11 -65 -7 -66 -8 -109 -63 -24 -30 -45 -66 -48 -81 -3
-14 -11 -46 -17 -71 -24 -93 -37 -293 -21 -332 16 -43 30 -33 28 20 l-2 47 40
-3 c22 -2 46 -8 53 -14 20 -17 39 -59 48 -102 6 -36 5 -39 -12 -32 -35 14
-299 20 -335 7 -18 -6 -35 -8 -38 -3 -33 47 -42 55 -50 47 -9 -9 -18 -70 -20
-137 -1 -17 -7 -28 -15 -28 -9 0 -12 8 -8 25 8 45 -33 34 -158 -40 -52 -31
-122 -59 -250 -100 -30 -10 -61 -20 -69 -23 -11 -4 -12 12 -8 84 8 128 14 154
64 304 74 222 201 436 330 555 63 58 184 122 298 158 68 21 95 24 179 21 54
-2 113 -8 130 -13z m56 -272 c0 -41 -85 -163 -121 -174 -11 -4 -33 -1 -49 7
-24 10 -28 17 -23 38 18 74 65 128 123 138 48 9 70 6 70 -9z m-115 -624 c32
-4 68 -9 78 -11 10 -2 78 -6 150 -10 73 -3 133 -8 135 -9 2 -1 -7 -19 -19 -39
-16 -28 -19 -40 -10 -49 6 -6 11 -15 11 -19 0 -11 -94 -10 -187 2 -43 6 -97
13 -121 16 -31 4 -42 9 -38 19 8 22 -34 66 -88 92 l-51 24 40 -5 c22 -3 67 -8
100 -11z m-350 -53 c14 -26 37 -67 51 -90 14 -24 24 -46 22 -48 -3 -2 -27 -8
-54 -13 -27 -5 -56 -12 -65 -16 -14 -5 -16 2 -13 52 2 32 6 67 8 78 2 11 5 37
5 58 1 47 13 41 46 -21z m1105 48 c16 0 7 -45 -13 -67 -27 -31 -88 -51 -176
-58 l-74 -7 17 26 c9 15 17 41 18 60 1 31 4 34 37 40 64 10 72 8 65 -18 -7
-29 20 -58 50 -54 16 2 23 14 30 46 7 30 14 41 24 37 7 -3 17 -5 22 -5z m186
-62 c13 -17 12 -210 -1 -214 -5 -2 -26 18 -45 44 -19 25 -54 67 -77 91 -23 25
-40 47 -38 50 3 2 22 -8 43 -23 24 -16 45 -24 56 -20 16 6 16 8 -1 27 -17 20
-17 20 0 14 26 -10 33 18 12 49 l-16 25 29 -15 c15 -8 33 -21 38 -28z m-1490
-57 c-37 -37 -54 -61 -47 -66 12 -7 27 2 74 44 15 14 27 21 27 15 -1 -13 -43
-59 -73 -79 -15 -9 -27 -24 -27 -31 0 -15 31 -19 46 -5 15 14 62 22 68 12 6
-9 -48 -61 -63 -61 -4 0 -16 -8 -27 -18 -27 -25 -302 -162 -325 -162 -22 0
-25 -13 -6 -29 17 -13 65 -1 106 28 16 12 33 21 38 21 5 0 40 15 77 34 50 25
66 30 60 18 -4 -10 -12 -31 -18 -48 -6 -18 -17 -38 -23 -45 -36 -45 -54 -211
-33 -319 4 -25 11 -61 15 -80 l7 -35 -57 3 -57 4 -29 64 c-60 130 -91 242
-114 414 -19 147 -19 214 0 206 9 -3 34 3 58 13 23 10 63 24 89 30 56 13 155
59 218 101 72 48 79 35 16 -29z m699 -46 c35 -10 104 -14 230 -13 201 2 227
-3 315 -60 69 -45 158 -135 166 -167 3 -14 12 -25 20 -25 8 0 14 -6 14 -13 0
-17 -46 -160 -59 -183 -5 -11 -42 -83 -80 -161 -90 -184 -127 -240 -211 -323
-96 -94 -140 -127 -149 -111 -5 7 -73 34 -152 61 -139 46 -143 48 -116 61 22
10 41 10 100 0 40 -7 114 -17 165 -24 79 -9 95 -9 102 3 14 23 -3 32 -64 35
-30 2 -59 6 -64 9 -4 3 -29 6 -55 7 -26 2 -47 6 -47 10 0 13 67 20 174 18 59
-1 109 1 113 4 18 18 -24 36 -101 42 -73 6 -97 3 -212 -25 -71 -17 -141 -36
-156 -42 -22 -8 -30 -6 -47 11 -27 27 -53 27 -69 0 -11 -17 -10 -26 5 -57 14
-30 16 -46 9 -80 -6 -29 -6 -46 2 -54 17 -17 32 1 32 38 0 42 31 118 37 91 3
-9 17 -24 33 -32 28 -15 222 -78 275 -90 29 -7 28 -8 -35 -36 -35 -16 -100
-39 -143 -50 -82 -21 -262 -40 -332 -35 -51 3 -150 34 -195 61 -19 11 -52 29
-73 39 -20 11 -35 21 -32 24 16 17 153 57 230 68 121 17 155 25 155 36 0 17
-26 19 -101 8 -41 -6 -94 -13 -119 -16 -25 -3 -54 -9 -65 -14 -135 -61 -149
-63 -193 -27 -29 25 -38 39 -38 63 0 30 2 32 31 27 18 -3 81 0 141 7 60 6 157
11 217 11 104 -1 115 2 99 25 -11 16 -280 79 -457 107 l-79 12 -19 70 c-12 46
-18 103 -18 167 1 84 5 107 31 174 32 79 80 157 114 184 60 46 105 72 155 86
31 9 75 23 97 31 23 7 62 16 85 19 24 3 54 12 66 20 12 8 33 14 45 14 13 0 30
5 38 10 18 12 113 4 185 -15z m-580 -830 c33 -8 77 -17 98 -21 20 -3 39 -10
42 -14 5 -8 -149 -20 -252 -20 -57 0 -63 2 -63 21 0 11 -5 29 -11 41 -10 19
-9 20 58 13 37 -3 95 -12 128 -20z"/>
<path d="M10379 10835 c-34 -22 -69 -83 -69 -120 0 -86 58 -183 102 -170 82
23 115 67 119 155 6 138 -59 196 -152 135z"/>
<path d="M9983 9925 c-102 -13 -154 -49 -165 -111 -13 -81 60 -179 157 -209
l51 -17 75 33 c100 43 139 84 139 144 0 64 -21 98 -82 132 -70 39 -79 41 -175
28z m174 -70 c51 -30 67 -85 37 -130 -17 -26 -141 -95 -171 -95 -39 0 -118 47
-146 86 -49 71 -25 138 55 150 l35 6 -4 -53 c-3 -48 0 -58 25 -88 25 -29 31
-32 49 -22 30 15 41 102 19 136 -9 13 -16 26 -16 27 0 11 92 -2 117 -17z"/>
<path d="M10544 9881 c-67 -23 -108 -53 -128 -95 -24 -52 -20 -88 17 -142 42
-61 78 -75 209 -81 113 -6 155 8 194 66 44 64 24 183 -38 223 -21 14 -163 49
-192 47 -6 0 -34 -8 -62 -18z m187 -37 c64 -21 93 -60 93 -126 0 -97 -74 -131
-239 -109 -72 10 -83 14 -112 46 -27 28 -33 43 -33 79 0 38 5 48 35 74 19 17
49 33 67 36 115 19 131 19 189 0z"/>
<path d="M10600 9832 c-19 -15 -23 -28 -23 -73 1 -73 16 -109 46 -109 43 0 69
88 42 144 -25 52 -38 60 -65 38z"/>
<path d="M6323 10789 c-93 -14 -175 -63 -318 -193 -78 -72 -97 -98 -157 -221
-17 -33 -32 -62 -34 -64 -3 -3 -26 16 -52 41 -78 76 -132 94 -191 63 -16 -8
-38 -26 -48 -41 l-20 -27 -25 44 c-14 24 -35 65 -48 91 -34 70 -107 147 -158
169 -36 16 -47 17 -54 7 -4 -7 -8 -15 -8 -18 0 -4 25 -149 30 -175 5 -24 -1
-27 -20 -10 -20 18 -21 18 -53 -11 -41 -39 -103 -79 -147 -98 -81 -33 -247
-65 -370 -70 -148 -7 -205 -13 -243 -26 -16 -5 -59 -12 -95 -15 -111 -10 -192
-25 -287 -55 -49 -15 -126 -35 -170 -45 -44 -9 -132 -34 -195 -56 -63 -21
-142 -46 -175 -54 -120 -32 -310 -153 -370 -237 -75 -105 -164 -238 -189 -282
-15 -28 -34 -58 -41 -66 -8 -9 -26 -72 -41 -140 -23 -107 -27 -154 -31 -325
-2 -153 0 -214 11 -260 8 -33 22 -94 31 -135 9 -41 26 -97 38 -125 49 -114
162 -308 216 -372 31 -37 84 -105 118 -151 33 -45 87 -110 120 -145 96 -99
274 -260 328 -297 28 -19 103 -73 167 -120 268 -195 581 -356 820 -421 49 -13
88 -28 88 -34 0 -14 -37 -130 -49 -152 -19 -37 -40 -100 -51 -153 -6 -30 -18
-77 -25 -105 -8 -27 -17 -68 -21 -90 -4 -22 -13 -58 -21 -80 -19 -56 -43 -174
-43 -215 0 -19 -4 -50 -9 -68 -5 -18 -12 -56 -16 -85 -3 -28 -12 -92 -20 -142
-8 -49 -17 -137 -20 -195 -2 -58 -9 -141 -15 -185 -6 -44 -13 -102 -15 -130
-9 -122 -17 -194 -27 -250 -6 -33 -12 -69 -13 -80 -2 -11 -8 -47 -13 -80 -6
-33 -14 -97 -17 -143 -6 -73 -9 -82 -27 -82 -22 0 -97 29 -173 66 -28 13 -54
24 -58 24 -4 0 -37 20 -74 44 -71 45 -184 155 -250 241 -99 129 -211 347 -290
565 -19 52 -38 99 -42 105 -5 5 -11 19 -14 30 -19 66 -214 615 -251 704 -14
36 -26 73 -26 83 0 21 -85 280 -145 443 -53 144 -84 233 -99 285 -7 25 -18 55
-23 65 -6 11 -23 56 -38 100 -15 44 -38 102 -51 129 -13 27 -24 55 -24 60 0
12 -32 76 -75 151 -52 90 -135 183 -206 228 -32 21 -99 16 -119 -8 -16 -20
-21 -102 -9 -150 12 -50 65 -178 144 -350 79 -173 160 -407 190 -550 30 -139
83 -330 110 -390 14 -32 27 -69 30 -83 6 -32 34 -130 46 -157 4 -11 20 -58 34
-104 14 -47 32 -99 39 -115 49 -111 113 -247 132 -282 13 -23 34 -70 47 -105
14 -36 46 -107 72 -159 46 -93 67 -144 105 -264 11 -33 33 -91 49 -130 16 -39
55 -132 86 -206 31 -74 62 -142 69 -150 7 -8 17 -26 23 -40 12 -28 101 -155
171 -243 85 -106 284 -238 417 -276 58 -17 222 -40 244 -34 19 5 20 0 38 -150
2 -21 19 -100 38 -175 27 -106 48 -165 96 -260 66 -133 112 -184 181 -202 21
-6 49 -21 62 -34 23 -20 24 -24 10 -38 -9 -9 -17 -31 -20 -49 -2 -19 -8 -65
-15 -104 -15 -91 -6 -203 22 -288 46 -136 170 -227 390 -284 98 -26 115 -27
299 -25 107 1 227 3 265 4 86 2 348 -20 382 -33 13 -5 49 -9 80 -9 31 0 84 -5
119 -12 57 -10 68 -9 104 8 33 15 40 23 35 40 -3 16 1 23 16 27 16 4 20 11 16
27 -5 19 -2 21 21 16 41 -9 58 7 47 40 -22 61 -214 124 -430 143 -105 9 -392
39 -595 62 -233 27 -280 42 -345 105 -59 58 -70 104 -54 221 l13 93 41 0 c23
0 77 -5 121 -10 62 -8 106 -7 204 5 69 9 150 18 180 21 30 2 87 9 125 14 39 6
108 15 155 20 47 6 91 12 98 15 6 2 12 0 12 -5 0 -5 24 -44 53 -85 28 -42 65
-97 80 -123 55 -91 180 -197 261 -221 17 -5 78 -26 136 -46 l105 -38 280 -3
c297 -3 316 -5 463 -59 58 -21 87 -25 145 -23 64 3 72 5 72 23 1 11 4 26 9 33
4 7 5 24 2 38 -6 21 -3 24 24 24 17 0 33 6 36 14 9 22 -32 92 -83 140 -40 39
-57 47 -132 65 -47 11 -102 22 -121 25 -54 8 -324 25 -424 27 -55 1 -125 10
-183 25 -103 25 -130 43 -270 170 -45 41 -102 89 -128 106 l-46 31 53 30 c114
65 246 175 280 233 12 21 37 60 55 85 18 26 33 50 33 53 0 4 11 32 25 62 14
30 25 57 25 59 0 3 15 28 33 57 50 80 55 96 67 188 17 132 27 195 38 232 19
61 29 126 31 205 1 43 6 105 11 138 12 79 17 178 26 485 3 140 7 256 9 258 1
1 38 -25 81 -59 43 -34 108 -75 144 -91 36 -16 72 -36 80 -43 8 -7 67 -40 130
-72 63 -33 135 -72 160 -86 96 -54 317 -132 433 -152 30 -5 37 -10 32 -23 -17
-46 -17 -174 0 -240 22 -82 34 -106 78 -154 40 -45 79 -62 177 -78 41 -7 86
-14 100 -16 64 -11 316 -21 515 -22 194 0 236 2 355 25 74 13 151 32 170 40
181 81 386 218 458 307 99 123 142 229 135 331 -2 33 -11 71 -20 84 -9 14 -34
59 -55 100 -43 84 -60 101 -133 137 -40 19 -67 24 -135 25 -47 1 -119 4 -160
8 l-75 6 -2 43 -2 43 39 -2 c42 -3 66 11 57 33 -4 11 -24 12 -100 7 -103 -8
-117 -12 -117 -35 0 -10 12 -14 39 -14 36 0 39 -2 44 -32 3 -18 2 -36 -2 -39
-3 -4 -66 -12 -140 -18 -121 -10 -136 -9 -153 6 -10 9 -18 21 -18 28 0 23 48
57 85 59 39 4 57 20 48 44 -9 23 -80 8 -122 -26 -20 -16 -46 -49 -59 -73 -13
-24 -30 -51 -38 -60 -15 -16 -92 -44 -100 -36 -3 2 4 28 16 56 23 60 25 81 7
81 -13 0 -45 -55 -71 -122 -12 -31 -20 -38 -53 -43 -21 -4 -46 -9 -56 -12 -17
-4 -18 0 -12 49 4 29 8 58 8 63 1 6 -7 10 -18 10 -17 0 -22 -11 -34 -67 l-14
-67 -69 -16 c-38 -10 -71 -16 -72 -14 -2 2 -2 46 1 97 l6 93 52 -5 c41 -5 56
-2 66 10 10 13 10 17 -2 25 -21 13 -326 12 -335 -2 -13 -22 17 -31 95 -30 l81
1 0 -74 c0 -120 -4 -129 -63 -150 -52 -18 -200 -100 -247 -137 -25 -19 -28
-19 -95 -3 -237 56 -400 113 -590 207 -120 60 -358 216 -426 279 -20 19 -57
51 -83 73 -26 21 -51 46 -56 55 -5 9 -14 83 -20 166 -5 82 -15 214 -21 294 -6
80 -17 213 -25 295 -8 83 -17 183 -20 224 -3 41 -10 85 -15 98 -7 20 -5 25 14
32 12 5 56 22 97 39 41 16 102 37 135 47 59 18 246 105 273 127 7 6 35 21 62
34 27 12 75 40 107 61 32 22 84 52 116 69 32 16 80 46 108 67 27 20 54 37 59
37 5 0 51 39 102 88 51 48 111 103 133 123 90 79 297 306 320 349 7 14 25 36
39 49 31 29 106 151 106 173 0 8 6 20 13 26 22 19 135 259 153 327 4 17 9 41
11 55 1 14 11 66 23 115 25 110 36 250 21 259 -6 4 -11 17 -11 29 0 12 -7 35
-15 51 -8 15 -15 33 -15 38 0 15 -61 100 -100 138 -36 36 -171 129 -251 174
-26 14 -87 37 -135 51 -49 14 -125 37 -169 50 -88 28 -347 90 -410 99 -22 3
-58 8 -80 11 -22 2 -67 12 -100 21 -33 9 -77 20 -99 25 -21 6 -46 14 -55 18
-9 5 -36 11 -59 15 -42 5 -169 75 -219 119 -29 26 -29 38 3 132 24 71 25 79
10 93 -15 15 -21 11 -81 -48 -41 -40 -61 -68 -55 -74 6 -6 25 6 52 32 24 23
46 42 49 42 3 0 -3 -27 -13 -60 -11 -33 -24 -60 -29 -60 -6 0 -37 18 -69 40
-72 49 -120 62 -120 33 0 -10 5 -24 12 -31 9 -9 8 -12 -4 -12 -9 0 -19 4 -22
8 -7 12 -86 14 -100 3 -15 -11 -76 -20 -76 -10 0 4 4 10 9 14 17 10 88 167
100 221 28 118 11 332 -33 425 -36 75 -58 94 -146 124 -79 27 -150 30 -267 14z
m183 -57 c-19 -36 -36 -51 -74 -62 -25 -7 -43 -3 -92 21 -34 16 -69 29 -78 29
-10 0 -12 3 -6 9 11 11 127 28 207 30 l58 1 -15 -28z m92 -1 c9 -5 25 -12 34
-15 26 -8 74 -81 93 -139 9 -29 17 -94 18 -147 2 -95 2 -95 -23 -98 -34 -4
-76 41 -85 90 -7 39 -5 43 64 96 19 15 21 20 9 30 -39 32 -158 -82 -158 -150
0 -73 88 -172 148 -166 42 5 42 -15 2 -101 -25 -51 -33 -62 -48 -56 -63 27
-95 34 -158 35 -84 0 -170 -23 -184 -50 -11 -20 -11 -20 -58 3 -26 13 -75 34
-109 47 -80 31 -101 46 -85 62 16 16 15 53 -3 112 -19 62 -38 91 -88 138 l-40
36 84 84 c46 46 96 94 111 107 l26 23 69 -33 c60 -29 76 -32 141 -30 124 4
233 59 217 110 -7 23 -3 25 23 12z m-1290 -147 c23 -19 59 -65 79 -102 21 -37
46 -80 55 -97 29 -49 118 -234 118 -245 0 -6 -9 -6 -22 -1 -13 4 -28 6 -35 4
-7 -3 -25 24 -43 63 -17 38 -34 71 -38 74 -4 3 -19 24 -35 47 -18 29 -32 41
-43 36 -9 -3 -13 -12 -9 -22 4 -9 13 -47 22 -86 8 -38 21 -80 29 -91 11 -19
10 -23 -12 -33 -14 -6 -27 -11 -28 -11 -8 0 -44 194 -62 330 -3 25 -11 73 -18
108 -7 34 -10 62 -6 62 3 0 25 -16 48 -36z m-132 -238 c-46 -60 -22 -82 26
-24 15 18 28 28 28 21 0 -7 -13 -28 -30 -46 -16 -19 -30 -40 -30 -46 0 -18 25
-13 45 9 10 11 25 20 34 20 9 0 -4 -19 -34 -50 -54 -55 -131 -97 -180 -98 -16
-1 -52 -5 -79 -11 -27 -5 -54 -7 -61 -5 -6 3 -36 -4 -67 -15 -32 -11 -79 -22
-105 -26 -26 -3 -64 -10 -83 -15 -111 -29 -185 -41 -260 -44 -61 -3 -131 -16
-250 -49 -200 -54 -261 -77 -320 -119 -96 -68 -163 -114 -186 -126 -13 -7 -33
-27 -46 -45 -39 -55 -149 -187 -157 -187 -4 0 -36 -35 -71 -77 -74 -92 -166
-274 -186 -372 -25 -120 -19 -179 31 -307 42 -107 108 -242 151 -309 34 -53
210 -259 250 -293 21 -19 111 -104 199 -191 88 -86 198 -190 245 -231 47 -41
117 -104 155 -140 106 -101 241 -196 435 -307 131 -75 173 -95 197 -93 33 4
34 0 8 -50 -14 -27 -34 -74 -46 -105 -23 -61 -12 -59 -129 -30 -67 16 -321
123 -398 167 -30 17 -79 45 -110 62 -141 78 -169 95 -246 152 -44 33 -119 87
-166 119 -82 57 -270 223 -377 334 -29 30 -77 90 -107 135 -30 45 -77 106
-104 136 -26 30 -63 77 -81 103 -52 76 -149 276 -166 342 -49 189 -56 235 -55
414 0 97 4 201 10 231 28 155 42 205 74 272 33 69 150 244 189 282 9 10 17 21
17 26 0 9 36 46 86 90 31 28 130 90 142 90 4 0 29 11 56 25 27 14 59 25 70 25
11 0 43 9 71 19 27 10 86 32 130 49 44 17 103 33 130 37 60 8 163 34 187 46
36 19 138 40 239 49 58 6 124 16 146 24 49 17 132 26 284 30 70 2 138 10 175
20 178 51 186 54 259 102 26 17 28 17 22 2 -10 -28 12 -31 36 -4 32 36 34 23
3 -18z m543 -6 c33 -27 62 -54 66 -60 12 -19 150 -117 195 -137 25 -12 93 -44
152 -72 59 -28 111 -51 116 -51 5 0 26 -8 48 -19 21 -10 69 -26 107 -37 67
-19 87 -34 44 -34 -17 0 -25 -8 -32 -32 -10 -32 -12 -33 -60 -31 -27 1 -66 6
-85 12 -19 5 -47 13 -62 16 -22 4 -30 14 -39 48 -17 65 -36 95 -81 127 -53 39
-106 54 -127 37 -9 -7 -29 -19 -44 -27 -23 -12 -28 -20 -25 -42 4 -24 1 -27
-17 -24 -11 2 -46 18 -78 35 -32 17 -63 31 -69 31 -19 0 -48 32 -48 52 0 10 5
18 10 18 6 0 10 -7 10 -16 0 -9 7 -14 18 -12 44 9 1 154 -69 229 -34 37 -35
39 -10 39 11 0 47 -22 80 -50z m-429 -147 c0 -21 6 -50 14 -64 13 -26 12 -27
-13 -32 -68 -14 -177 -116 -337 -314 -119 -148 -162 -225 -186 -341 -31 -153
-28 -398 9 -549 5 -21 1 -23 -31 -23 -21 0 -67 -6 -104 -14 -37 -8 -105 -17
-152 -21 -47 -3 -110 -12 -140 -20 -30 -8 -89 -17 -130 -21 -84 -6 -221 -32
-234 -44 -14 -13 30 -21 58 -10 15 5 71 13 125 16 53 3 108 7 122 9 74 10 248
38 344 56 61 10 119 19 131 19 25 0 44 -18 44 -42 0 -10 4 -26 9 -36 5 -9 12
-24 16 -32 3 -8 12 -26 20 -40 l15 -25 -88 -17 c-48 -10 -129 -17 -181 -18
-93 0 -250 -31 -406 -80 -33 -10 -84 -21 -114 -25 -64 -7 -72 -11 -64 -31 8
-20 41 -15 278 49 157 42 207 51 290 53 125 4 201 11 216 20 6 3 29 7 51 8 30
2 42 -2 50 -17 6 -11 28 -39 50 -63 l39 -43 -28 -15 c-28 -14 -97 -31 -177
-43 -50 -7 -117 -49 -109 -69 3 -8 8 -14 12 -12 47 22 196 68 220 68 9 0 40 9
69 19 l53 20 57 -30 c31 -17 93 -41 137 -54 86 -25 175 -64 175 -77 0 -4 -5
-8 -11 -8 -8 0 -8 -5 1 -15 10 -12 9 -16 -5 -21 -15 -6 -62 -96 -80 -154 -4
-14 -44 -95 -87 -180 -105 -204 -238 -469 -238 -475 0 -2 -25 -56 -55 -119
-30 -63 -55 -122 -55 -130 0 -24 -52 -20 -92 8 -20 13 -57 36 -84 51 -176 100
-365 229 -448 306 -39 36 -114 103 -166 149 -152 133 -558 538 -638 636 -99
122 -232 391 -254 514 -12 68 4 172 39 250 69 155 99 204 171 285 78 88 196
228 210 249 8 13 111 89 209 154 58 39 164 80 298 116 33 8 89 23 125 32 36
10 97 19 137 20 39 2 98 10 130 18 32 8 81 17 108 20 79 8 147 23 201 44 44
17 90 25 232 38 50 4 135 47 162 81 10 13 22 23 28 23 5 0 15 7 22 15 20 25
30 17 30 -22z m295 -100 c11 -6 52 -20 90 -33 78 -25 302 -129 347 -161 16
-12 36 -22 45 -23 9 -2 22 -11 29 -20 7 -10 18 -15 24 -11 8 5 7 11 -2 23 -11
13 -10 14 12 9 34 -7 141 -36 160 -42 151 -49 228 -76 240 -84 8 -6 47 -27 85
-47 114 -60 206 -128 301 -224 120 -121 140 -160 153 -289 6 -57 13 -106 15
-109 2 -4 -1 -41 -8 -82 l-11 -75 -93 -7 c-51 -4 -125 -14 -165 -22 -39 -8
-92 -17 -117 -21 -25 -3 -78 -13 -118 -22 -41 -8 -133 -20 -205 -27 -123 -10
-132 -12 -135 -32 -3 -20 -6 -21 -43 -13 -63 15 -109 37 -109 53 0 19 -47 56
-72 56 -11 0 -33 -14 -49 -31 l-29 -31 -198 8 c-108 4 -244 8 -302 9 -58 1
-162 8 -231 14 -69 7 -184 13 -254 14 l-129 2 -12 50 c-27 107 -32 350 -10
490 17 114 61 205 146 305 25 30 53 65 61 76 8 12 57 67 108 123 78 84 106
107 160 132 101 47 104 48 131 52 42 7 164 1 185 -10z m1452 -189 c3 -8 10
-14 15 -14 6 0 40 -22 77 -49 81 -59 164 -102 205 -105 17 -2 47 -8 66 -14 55
-18 194 -49 325 -72 66 -11 170 -34 230 -50 410 -111 426 -117 575 -215 103
-69 189 -153 214 -208 60 -134 61 -230 5 -457 -26 -101 -110 -308 -150 -367
-16 -23 -29 -46 -29 -50 0 -15 -81 -146 -104 -169 -12 -11 -52 -61 -91 -110
-67 -86 -179 -201 -377 -386 -88 -82 -211 -173 -275 -200 -15 -7 -60 -34 -100
-60 -40 -26 -77 -48 -83 -48 -6 0 -41 -20 -78 -44 -67 -44 -126 -73 -237 -117
-33 -12 -64 -27 -70 -31 -5 -4 -18 -8 -30 -8 -11 0 -31 -6 -45 -13 -14 -7 -50
-22 -80 -32 -30 -11 -59 -23 -65 -27 -17 -15 -21 -8 -34 60 -7 37 -20 94 -28
126 -12 49 -12 60 -1 67 10 7 9 9 -4 9 -63 0 37 67 181 121 18 7 66 34 105 59
39 26 90 57 114 69 24 12 75 44 115 70 40 26 110 68 157 92 90 47 323 196 328
211 2 4 8 8 13 8 6 0 47 30 92 66 93 75 199 190 229 249 11 22 23 42 27 45 13
10 81 156 81 172 0 10 14 47 30 81 24 50 30 78 30 128 0 110 -63 387 -96 418
-14 15 -15 12 -11 -29 2 -25 19 -106 37 -180 39 -163 40 -234 5 -315 -14 -30
-25 -65 -25 -76 0 -23 -78 -175 -132 -259 -32 -49 -97 -117 -198 -206 -43 -37
-243 -171 -371 -249 -9 -5 -45 -25 -79 -44 -35 -18 -75 -41 -89 -51 -77 -52
-152 -97 -196 -118 -27 -13 -52 -27 -55 -31 -9 -15 -103 -66 -165 -91 -33 -13
-80 -35 -104 -48 -24 -13 -47 -20 -51 -15 -5 4 -25 62 -45 128 -60 195 -129
372 -174 445 -31 50 -104 201 -99 204 2 1 41 20 88 43 92 44 232 136 292 191
21 19 53 69 75 114 44 91 34 89 178 42 75 -24 338 -59 588 -78 71 -5 77 -4 77
13 0 26 -19 31 -109 31 -43 0 -113 4 -157 10 -43 5 -122 14 -174 20 -52 6
-151 26 -220 43 -140 36 -135 30 -108 124 12 42 12 42 77 53 135 24 272 29
394 16 63 -7 69 -6 65 10 -2 12 -17 21 -43 27 -41 8 -332 3 -417 -9 -45 -6
-46 -5 -41 18 12 47 16 48 177 42 108 -4 181 -13 258 -31 116 -26 183 -28 183
-3 0 11 -16 17 -60 22 -33 3 -82 14 -110 23 -43 14 -377 40 -419 32 -7 -1 -9
10 -7 28 7 45 4 159 -6 260 -10 113 -41 169 -147 274 l-74 74 30 49 c17 27 39
59 50 72 l21 22 111 -42 c61 -24 123 -43 137 -44 14 0 28 -3 32 -6 3 -4 24 -8
45 -9 22 -2 57 -12 78 -23 21 -10 71 -29 109 -42 73 -24 109 -36 290 -100 104
-37 174 -67 220 -93 107 -63 174 -115 247 -192 38 -40 47 -46 48 -30 0 36 -38
83 -122 150 -86 68 -276 168 -378 199 -30 10 -86 30 -125 46 -38 15 -88 32
-110 36 -22 4 -69 20 -104 37 -35 16 -112 40 -170 52 -155 34 -257 73 -333
128 -62 44 -116 102 -105 113 2 3 28 -4 56 -16 73 -28 78 -27 78 20 0 34 -5
42 -38 66 -22 15 -39 31 -39 36 0 12 120 -71 127 -88z m-103 -159 l28 -18 -31
-24 c-17 -14 -31 -29 -31 -35 0 -13 -39 -68 -49 -68 -4 0 -15 6 -24 13 -16 11
-16 16 3 70 19 55 20 97 1 97 -9 0 -78 -85 -83 -102 -4 -10 -48 10 -48 22 0 5
28 39 92 108 l30 33 42 -39 c24 -22 55 -47 70 -57z m121 -882 c-4 -10 -10 -26
-12 -36 -9 -30 -81 -38 -391 -41 -136 -1 -233 -1 -217 1 17 2 71 12 120 23
110 23 342 58 410 63 28 2 61 4 74 5 18 2 22 -2 16 -15z m-1886 -38 c75 -9
186 -16 248 -16 105 1 156 -11 95 -22 -15 -2 -97 -21 -182 -41 -85 -20 -175
-36 -200 -37 -25 0 -83 -8 -130 -18 -47 -10 -89 -16 -93 -13 -5 2 -24 36 -43
76 l-34 71 22 5 c49 12 188 10 317 -5z m716 -45 c-3 -5 -17 -10 -31 -10 -31 0
-133 -33 -200 -66 -28 -13 -55 -24 -60 -24 -5 0 -31 -9 -59 -19 -68 -26 -178
-57 -250 -71 -33 -7 -85 -23 -115 -37 -30 -14 -76 -27 -101 -30 -45 -4 -47 -3
-93 49 -25 29 -46 58 -46 63 0 10 134 35 255 49 94 11 229 41 285 63 8 4 26 8
40 9 14 2 36 6 50 10 14 4 90 10 170 14 80 4 149 7 153 8 5 1 5 -2 2 -8z m231
-19 c21 -10 71 -24 109 -31 91 -15 140 -25 195 -38 25 -6 110 -18 190 -27 210
-23 280 -33 327 -47 41 -12 41 -13 28 -38 -8 -14 -22 -42 -31 -63 -9 -21 -35
-57 -58 -81 -42 -43 -162 -125 -226 -155 -19 -9 -37 -18 -40 -22 -16 -17 -90
-43 -123 -41 -21 0 -35 -3 -32 -8 3 -4 -30 -11 -72 -15 -43 -4 -95 -10 -116
-14 -63 -10 -246 5 -337 28 -47 12 -94 23 -105 25 -63 13 -123 28 -145 35 -14
5 -52 17 -85 26 -64 18 -200 67 -251 90 -16 8 -68 26 -115 40 -46 15 -96 32
-111 39 l-26 12 51 24 c46 21 153 51 327 94 30 7 71 20 90 29 76 33 157 65
195 77 22 7 51 17 64 22 27 10 155 38 176 38 8 0 16 -16 20 -40 4 -22 7 -43 8
-47 1 -5 -29 -11 -68 -15 -116 -10 -197 -28 -225 -48 -34 -24 -60 -86 -60
-142 0 -36 6 -47 45 -84 26 -23 60 -45 78 -48 52 -10 147 -5 222 11 39 8 97
17 130 20 57 4 145 37 145 54 0 5 9 17 21 28 11 10 23 37 26 60 5 34 1 48 -23
82 -15 23 -43 53 -61 66 -31 24 -39 25 -116 21 l-83 -4 -3 43 c-3 69 4 73 65
44z m897 -48 c-8 -27 -16 -53 -18 -60 -4 -12 -41 -7 -60 8 -6 4 -46 11 -90 14
-44 4 -118 13 -165 20 -47 8 -120 17 -163 20 -44 3 -90 11 -105 19 -22 12 9
14 237 14 144 0 265 3 268 6 4 3 30 6 58 6 l52 0 -14 -47z m-758 -116 c47 -46
55 -74 34 -120 -14 -30 -90 -68 -149 -73 -25 -3 -81 -12 -124 -20 -45 -9 -112
-14 -156 -12 -65 2 -82 7 -113 31 -48 37 -55 68 -29 123 34 70 39 71 257 89
33 3 76 9 95 14 19 5 59 9 87 10 49 1 56 -2 98 -42z m-582 -364 c15 -3 30 -10
33 -14 3 -5 18 -9 34 -9 16 0 82 -14 147 -31 131 -34 308 -52 388 -39 28 5 85
11 127 14 l77 6 51 -102 c28 -57 61 -119 73 -138 22 -35 73 -160 107 -260 91
-274 133 -428 156 -575 8 -54 19 -106 24 -115 4 -8 11 -40 14 -70 4 -30 9 -71
11 -90 11 -90 32 -350 40 -505 3 -60 10 -161 16 -224 5 -63 7 -116 5 -119 -7
-7 -186 160 -264 247 -61 67 -125 150 -228 293 -17 24 -49 75 -72 115 -24 40
-48 76 -55 80 -14 9 -89 196 -138 343 -17 52 -35 100 -39 105 -4 6 -11 21 -15
35 -18 63 -65 136 -65 101 0 -10 105 -313 122 -351 14 -33 61 -160 103 -281
18 -53 38 -105 44 -115 5 -11 43 -86 83 -169 74 -155 97 -193 180 -306 26 -37
48 -70 48 -74 0 -25 212 -255 288 -310 42 -32 52 -45 53 -70 0 -16 -1 -95 -2
-175 -6 -416 -11 -515 -29 -609 -5 -29 -10 -74 -10 -100 0 -45 -19 -165 -39
-252 -6 -24 -15 -86 -21 -137 -11 -102 -32 -165 -77 -239 -16 -26 -43 -80 -61
-120 -33 -75 -104 -187 -150 -236 -37 -39 -126 -102 -261 -182 -163 -98 -247
-122 -496 -146 -110 -11 -213 -24 -230 -29 -82 -25 -287 -34 -380 -16 -11 2
-54 7 -95 10 -41 4 -93 11 -115 16 -22 5 -67 11 -100 14 -146 13 -263 65 -308
137 -58 94 -117 232 -142 334 -49 199 -55 238 -70 435 -8 107 -17 223 -21 258
l-6 63 35 -6 c22 -4 37 -3 42 5 10 16 -12 38 -43 42 -26 3 -27 6 -27 58 0 91
25 291 55 450 6 29 10 80 10 114 0 33 5 79 10 101 5 22 12 108 15 190 6 150
11 201 41 370 9 50 20 124 25 165 12 110 18 139 40 200 12 30 32 110 45 178
14 68 36 154 50 190 14 37 36 101 50 142 13 41 28 84 34 95 5 11 18 47 28 80
11 33 31 80 46 105 14 25 26 52 26 60 0 8 26 71 58 140 33 69 73 157 91 195
17 39 41 88 53 110 109 208 220 430 238 475 11 30 24 64 29 75 5 11 15 36 22
55 7 19 21 47 32 61 l19 27 106 -34 c59 -19 119 -37 135 -41z m-3130 -305 c32
-28 74 -75 95 -102 34 -48 46 -67 100 -171 27 -51 113 -269 142 -360 39 -123
81 -239 94 -265 22 -42 138 -392 177 -535 6 -22 20 -62 30 -89 10 -27 19 -54
19 -60 0 -6 6 -23 14 -37 7 -14 21 -52 31 -85 10 -32 21 -63 25 -69 4 -5 29
-73 54 -150 26 -77 51 -149 56 -160 5 -11 16 -42 26 -70 10 -27 24 -61 31 -75
7 -14 13 -31 13 -38 0 -7 4 -20 10 -30 5 -9 19 -45 31 -80 12 -34 26 -65 30
-68 5 -3 9 -13 9 -22 0 -22 115 -250 165 -328 77 -120 227 -284 310 -341 84
-56 254 -132 340 -152 23 -5 30 -13 32 -31 1 -14 7 -99 15 -190 7 -91 13 -169
13 -174 0 -10 -76 -13 -92 -3 -6 4 -37 9 -69 13 -33 4 -63 10 -69 14 -5 4 -26
11 -45 15 -80 17 -251 126 -342 219 -67 67 -176 222 -227 321 -41 80 -71 147
-71 158 0 4 -11 33 -25 63 -14 30 -25 58 -25 62 0 4 -6 18 -13 32 -8 14 -16
34 -20 45 -3 11 -19 58 -36 105 -17 47 -41 114 -52 150 -12 36 -29 74 -40 86
-10 11 -19 23 -19 27 0 4 -17 44 -39 90 -21 45 -42 93 -46 107 -4 14 -45 102
-90 195 -72 147 -154 370 -198 540 -3 11 -15 45 -27 75 -34 84 -69 205 -90
310 -27 130 -73 295 -99 354 -12 26 -33 83 -47 125 -14 42 -34 92 -45 110 -12
19 -31 62 -44 95 -12 34 -39 97 -59 141 -66 144 -66 144 -68 209 -1 93 49 102
135 24z m3992 -1554 c110 -149 214 -261 364 -394 99 -87 101 -89 102 -108 0
-27 7 -93 14 -139 4 -24 2 -43 -3 -43 -18 0 -82 58 -174 157 -149 160 -340
462 -387 613 l-10 35 22 -27 c12 -14 45 -57 72 -94z m527 -541 c11 -25 144
-128 318 -246 154 -104 467 -250 602 -281 120 -27 219 -54 225 -59 3 -4 -9
-30 -28 -59 -18 -29 -33 -54 -34 -55 0 -1 -41 5 -90 12 -86 13 -149 30 -170
45 -5 4 -46 20 -90 35 -44 15 -85 31 -90 36 -6 4 -35 21 -65 37 -30 16 -102
55 -160 87 -58 31 -139 75 -180 97 -69 38 -128 74 -140 88 -3 3 -29 23 -57 45
-51 37 -53 41 -53 86 0 25 -3 67 -6 93 -4 29 -3 46 4 46 6 0 12 -3 14 -7z
m2658 -253 c162 -10 211 -27 256 -92 17 -24 37 -59 44 -78 7 -19 23 -48 34
-65 30 -43 29 -162 -2 -225 -74 -151 -186 -263 -349 -350 -32 -17 -76 -42 -99
-55 -62 -37 -199 -83 -294 -99 -101 -17 -597 -20 -755 -4 -115 11 -258 43
-295 65 -80 48 -134 232 -107 366 8 37 8 37 51 33 56 -5 79 8 52 29 -11 8 -30
15 -43 15 -30 0 -29 9 7 59 41 56 86 97 135 122 22 12 48 28 57 36 19 17 139
75 144 70 2 -2 -1 -18 -7 -34 -8 -25 -19 -33 -56 -42 -54 -14 -50 -24 12 -27
51 -2 59 5 85 73 17 47 19 48 81 65 35 10 67 14 71 10 3 -4 -7 -26 -23 -50
-24 -35 -26 -44 -14 -48 17 -7 46 24 70 74 l16 33 20 -26 c11 -14 31 -25 43
-25 28 0 76 36 76 56 0 8 5 14 10 14 6 0 10 -9 10 -20 0 -27 40 -36 78 -16 31
16 72 65 72 85 0 6 10 12 23 12 12 1 38 3 57 5 54 5 80 -3 80 -27 0 -32 -17
-55 -50 -69 -34 -14 -35 -33 -3 -38 13 -2 35 9 55 27 29 26 33 35 33 79 l0 51
80 6 c123 11 129 8 135 -45 3 -31 10 -45 20 -45 12 0 15 12 14 53 -2 47 0 52
20 52 11 -1 82 -5 156 -10z m-3357 -2100 c7 -5 35 -28 64 -50 28 -22 85 -69
125 -105 161 -146 251 -177 533 -189 410 -18 549 -48 613 -136 44 -59 22 -54
-51 11 -50 44 -77 55 -77 30 0 -4 20 -34 45 -65 25 -32 45 -62 45 -66 0 -5
-30 12 -66 36 -37 25 -71 43 -77 41 -23 -7 -16 -27 20 -53 51 -37 113 -96 113
-107 0 -16 -94 2 -205 39 -89 30 -134 38 -235 46 -69 5 -154 8 -190 7 -230 -8
-260 -5 -384 35 -165 52 -213 76 -273 135 -29 28 -92 111 -141 184 l-90 133
72 22 c39 13 85 31 101 42 34 23 41 24 58 10z m-1373 -125 c91 -8 125 -19 129
-40 2 -11 -2 -49 -9 -86 -12 -61 -11 -72 9 -135 24 -78 30 -87 88 -132 82 -64
141 -76 548 -112 72 -7 184 -20 250 -30 66 -10 149 -19 185 -19 107 -2 200
-24 200 -46 0 -6 16 -26 35 -45 69 -67 28 -66 -66 1 -23 16 -28 17 -39 4 -10
-12 -6 -20 22 -46 l33 -32 -52 29 c-41 22 -55 26 -64 17 -18 -18 4 -39 74 -74
32 -17 57 -32 55 -34 -2 -2 -21 1 -43 6 -22 6 -76 14 -120 19 -44 4 -109 13
-145 19 -87 15 -406 28 -433 17 -20 -7 -290 -2 -378 8 -52 6 -114 24 -212 64
-216 87 -276 222 -242 552 10 98 20 112 80 105 22 -3 65 -7 95 -10z"/>
<path d="M6110 10508 c-40 -66 -38 -133 7 -222 32 -65 81 -116 110 -116 23 0
63 35 63 56 0 6 9 39 20 73 16 51 17 70 9 118 -13 73 -32 96 -91 111 -76 19
-96 16 -118 -20z"/>
<path d="M5537 9547 c-15 -5 -27 -13 -27 -19 0 -5 -8 -21 -19 -34 -17 -22 -18
-26 -3 -71 32 -98 170 -200 257 -190 69 8 90 27 106 97 19 80 -51 186 -136
208 -59 15 -147 20 -178 9z m153 -43 c45 -10 73 -24 93 -44 l29 -30 -26 -10
c-21 -8 -26 -16 -26 -43 0 -19 5 -48 11 -66 6 -18 9 -35 5 -38 -26 -26 -150
25 -210 86 -58 60 -67 132 -18 150 39 14 68 13 142 -5z"/>
<path d="M6338 9463 c-61 -4 -71 -7 -108 -40 -58 -52 -67 -94 -35 -158 18 -35
39 -59 71 -79 42 -27 53 -29 131 -27 93 1 142 17 186 58 22 22 27 35 27 78 0
31 -6 60 -17 75 -52 76 -118 100 -255 93z m149 -54 c77 -33 107 -69 58 -69
-18 0 -28 -7 -35 -26 -14 -36 -13 -39 15 -52 34 -16 32 -25 -12 -46 -61 -29
-158 -32 -214 -5 -55 25 -93 82 -85 126 2 15 5 31 5 35 1 11 62 42 96 49 62
13 124 9 172 -12z"/>
<path d="M6000 8595 c-30 -7 -82 -16 -114 -19 -49 -5 -66 -11 -93 -38 -38 -37
-43 -76 -13 -103 48 -43 388 -7 436 46 25 27 9 89 -27 106 -40 19 -129 23
-189 8z m173 -40 c21 -21 10 -53 -25 -71 -27 -14 -182 -33 -279 -34 -58 0 -86
18 -71 47 15 27 54 41 130 46 35 2 68 9 73 14 17 17 155 15 172 -2z"/>
<path d="M9439 5200 c-19 -11 -68 -117 -76 -165 -4 -28 -2 -35 11 -35 9 0 18
11 22 28 11 50 14 57 23 44 5 -8 16 -9 39 -2 30 8 34 7 45 -18 24 -55 58 -47
38 8 -6 18 -9 36 -6 40 3 4 -2 13 -10 20 -8 7 -15 18 -15 24 0 9 -46 67 -53
66 -1 0 -9 -5 -18 -10z"/>
<path d="M9081 5171 c-57 -23 -63 -39 -46 -116 4 -22 9 -46 11 -53 6 -31 36
-62 58 -62 35 0 86 32 86 54 0 13 -5 16 -17 11 -47 -19 -74 -27 -78 -23 -3 2
-6 15 -7 28 -3 20 5 27 52 45 30 13 56 28 58 34 5 15 -38 14 -86 -3 -41 -15
-52 -9 -52 25 0 13 50 36 98 44 26 4 42 12 42 21 0 20 -64 17 -119 -5z"/>
<path d="M8753 5153 c-32 -4 -33 -5 -34 -56 0 -29 -3 -86 -5 -127 -7 -107 -2
-121 39 -113 81 16 147 81 147 144 0 37 -40 105 -80 134 -19 14 -34 24 -34 23
-1 0 -16 -3 -33 -5z m76 -80 c39 -47 42 -99 9 -130 -24 -22 -61 -43 -75 -43
-4 0 -7 47 -5 105 3 95 5 105 22 105 10 0 32 -17 49 -37z"/>
<path d="M11390 8843 c-14 -2 -44 -11 -67 -20 -55 -20 -63 -56 -38 -179 6 -30
53 -46 117 -41 61 4 78 11 78 34 0 13 -10 14 -63 9 -74 -8 -97 -2 -97 29 0 19
7 23 52 28 51 6 78 20 65 33 -4 4 -34 6 -68 5 -57 -2 -60 -1 -57 20 2 16 18
27 66 45 35 13 68 23 74 21 6 -1 13 4 15 11 5 12 -23 14 -77 5z"/>
<path d="M10835 8780 c-71 -10 -198 -31 -212 -36 -7 -2 -10 -10 -7 -19 8 -19
56 -20 120 0 27 8 50 15 52 15 1 0 2 -30 2 -67 0 -69 21 -168 39 -186 21 -21
28 4 15 59 -11 50 -17 120 -15 182 1 19 6 22 42 22 32 0 40 3 37 17 -4 20 -11
22 -73 13z"/>
<path d="M10979 8703 c-3 -133 0 -186 11 -197 12 -12 23 16 25 66 3 72 2 69
47 66 40 -3 43 -5 50 -42 9 -43 25 -69 38 -61 9 5 5 128 -4 143 -2 4 -7 30
-10 56 -3 27 -8 52 -12 55 -12 13 -24 -27 -18 -66 l6 -43 -46 0 -46 0 0 55 c0
48 -2 55 -20 55 -18 0 -20 -7 -21 -87z"/>
<path d="M10112 8700 c-7 -33 -17 -60 -22 -60 -35 0 -124 -125 -118 -165 4
-28 20 -23 37 10 l14 28 14 -26 c18 -36 49 -34 72 4 18 29 19 30 26 10 9 -29
62 -71 89 -71 13 0 40 11 60 25 36 24 37 24 93 10 73 -19 89 -19 97 1 8 21 -3
37 -21 30 -20 -8 -93 12 -93 25 0 5 11 27 25 49 28 44 34 110 11 129 -21 18
-74 1 -101 -31 -19 -22 -25 -41 -25 -76 0 -26 5 -54 10 -62 6 -10 3 -21 -12
-37 -26 -28 -45 -29 -78 -3 -24 18 -25 24 -28 144 -3 111 -6 126 -21 126 -13
0 -20 -15 -29 -60z"/>
<path d="M9573 8735 c-37 -16 -62 -50 -69 -97 -5 -30 -2 -38 28 -64 19 -16 43
-34 53 -39 25 -15 12 -51 -26 -71 -16 -8 -27 -19 -24 -24 16 -26 79 2 95 41
19 44 5 74 -43 101 -27 15 -43 31 -45 46 -5 30 23 72 47 72 27 0 45 24 29 38
-9 7 -22 6 -45 -3z"/>
<path d="M9256 8671 c-15 -24 -56 -159 -56 -184 0 -51 24 -24 49 56 14 42 27
77 30 77 3 0 15 -27 25 -60 20 -63 53 -104 73 -92 15 10 72 182 66 199 -13 33
-41 -10 -63 -94 -6 -24 -14 -43 -18 -43 -5 0 -16 22 -26 50 -27 74 -64 117
-80 91z"/>
<path d="M9892 8327 c-5 -6 -12 -46 -16 -87 -3 -41 -9 -106 -13 -144 -5 -63
-4 -68 13 -64 15 3 20 14 22 58 2 30 7 59 11 63 8 8 85 -83 110 -130 6 -13 19
-23 27 -23 23 0 9 33 -47 117 -27 40 -49 74 -49 76 0 2 25 16 55 32 50 25 67
46 47 58 -8 6 -83 -29 -91 -42 -4 -4 -17 -12 -30 -16 -23 -7 -24 -7 -17 48 7
55 -2 79 -22 54z"/>
<path d="M10875 8294 c-32 -32 -45 -61 -48 -102 -2 -37 -6 -43 -47 -64 -25
-13 -48 -24 -52 -26 -5 -2 -8 23 -8 55 0 78 -14 97 -72 97 -59 1 -100 -30
-158 -122 -46 -73 -77 -99 -104 -89 -13 5 -16 24 -16 97 0 100 -9 120 -55 120
-18 0 -42 -16 -79 -52 -50 -51 -119 -161 -108 -173 13 -12 32 -3 45 22 l14 26
14 -29 c20 -42 51 -43 83 -2 14 19 29 45 35 58 9 23 10 22 10 -15 1 -26 9 -50
25 -70 23 -29 25 -29 62 -16 41 15 57 32 115 122 38 58 70 90 54 53 -15 -34
-18 -94 -5 -109 20 -24 40 -18 76 22 l34 37 0 -28 c0 -17 -13 -43 -35 -69 -46
-54 -99 -189 -91 -235 6 -42 32 -73 54 -65 57 20 90 93 100 217 l7 91 57 37
c49 33 61 36 83 28 26 -10 85 -7 105 5 5 3 10 15 10 27 0 15 -4 18 -17 13 -30
-13 -73 -18 -73 -9 0 5 18 28 40 52 22 24 40 51 40 62 0 44 -62 66 -95 34z"/>
<path d="M9090 8282 c-28 -23 -39 -80 -40 -207 0 -104 13 -175 32 -175 7 0 9
20 4 64 l-6 64 64 64 c36 36 68 77 71 91 13 50 -39 117 -89 117 -8 0 -24 -8
-36 -18z"/>
<path d="M9393 8207 c-16 -20 -73 -213 -73 -246 0 -40 27 -42 36 -3 16 72 19
77 55 77 35 0 39 -6 54 -78 5 -26 29 -46 41 -35 2 3 -2 31 -10 62 -9 32 -15
61 -14 64 1 4 -1 14 -4 22 -3 8 -13 41 -23 73 -19 60 -45 87 -62 64z"/>
<path d="M10140 7788 c-11 -18 -23 -44 -27 -58 -3 -14 -11 -32 -18 -40 -11
-14 -24 -67 -28 -115 -1 -11 5 -21 15 -23 14 -3 19 6 25 40 4 24 6 46 5 51 -1
4 10 12 25 18 16 6 36 15 45 20 10 5 20 9 23 9 8 0 45 -77 39 -82 -10 -11 22
-27 36 -18 13 8 6 28 -40 117 -30 59 -60 108 -67 111 -7 2 -22 -11 -33 -30z"/>
<path d="M11582 7758 c-7 -7 -12 -19 -12 -27 0 -9 -8 -38 -19 -66 -10 -27 -27
-77 -38 -110 -19 -57 -21 -60 -54 -62 -185 -8 -248 -19 -293 -49 -17 -12 -23
-11 -37 2 -21 19 -13 26 -117 -98 -40 -49 -77 -88 -81 -88 -13 0 -20 53 -10
72 5 9 9 28 9 42 0 35 -27 34 -42 -1 -13 -29 -87 -133 -95 -133 -3 0 -2 19 2
41 10 58 42 108 74 115 37 9 41 13 34 29 -3 8 -17 15 -32 15 -52 -1 -98 -40
-176 -149 -33 -46 -68 -89 -79 -96 -21 -16 -13 -35 15 -35 12 0 35 23 64 63
24 34 52 71 60 82 l16 20 -7 -20 c-4 -11 -9 -38 -12 -61 -3 -36 -1 -42 19 -47
18 -5 32 3 66 39 33 35 43 42 43 27 0 -25 19 -43 45 -43 20 0 63 39 135 125
19 22 31 33 28 24 -4 -9 -10 -38 -13 -64 -7 -42 -6 -47 10 -43 12 2 24 22 35
54 17 55 26 66 76 101 23 16 53 24 113 29 l82 7 -29 -44 c-31 -45 -55 -116
-46 -131 3 -4 15 -8 28 -8 15 0 38 20 73 64 29 36 57 75 64 87 11 22 12 21 28
-22 13 -35 22 -45 43 -47 33 -4 68 18 103 64 40 53 20 60 -37 12 -48 -40 -51
-41 -64 -23 -18 25 -18 86 1 144 27 84 60 196 60 205 0 15 -20 17 -33 4z"/>
<path d="M9635 7736 c-35 -16 -75 -66 -75 -95 0 -26 46 -69 82 -76 38 -9 35
-23 -7 -31 -22 -4 -35 -12 -35 -21 0 -12 8 -14 39 -9 64 10 91 24 91 45 0 23
-10 31 -48 37 -69 12 -105 77 -60 108 29 20 64 21 72 0 7 -17 26 -10 26 11 0
17 -27 45 -43 45 -7 -1 -25 -7 -42 -14z"/>
<path d="M10525 7511 c-46 -15 -95 -54 -101 -80 -3 -14 -7 -32 -10 -39 -2 -6
1 -33 7 -60 6 -26 12 -76 15 -112 2 -36 6 -80 9 -98 5 -28 8 -31 26 -22 13 8
18 18 14 33 -3 12 -7 51 -8 86 -2 50 0 64 13 69 35 13 80 56 99 95 22 47 19
85 -10 116 -21 22 -23 23 -54 12z"/>
<path d="M9999 7422 c-33 -29 -73 -129 -59 -147 4 -5 11 -21 15 -35 4 -14 18
-40 32 -57 27 -36 43 -39 123 -22 69 15 60 34 -16 34 -32 1 -64 2 -71 3 -10 2
-37 61 -30 68 1 2 18 6 36 9 18 3 46 12 62 21 24 12 29 21 29 51 0 49 -35 103
-66 103 -13 0 -38 -12 -55 -28z"/>
<path d="M10242 7383 c-33 -48 -52 -91 -52 -121 0 -33 32 -72 60 -72 30 0 77
47 95 95 17 43 17 45 -4 78 -34 55 -69 62 -99 20z"/>
<path d="M9695 7368 c-3 -8 -4 -70 -3 -139 l3 -124 35 1 c112 5 131 8 140 19
7 9 6 16 -4 24 -11 9 -29 10 -72 2 -32 -6 -60 -8 -63 -5 -3 3 -6 56 -6 116 0
80 -4 112 -12 115 -7 3 -15 -2 -18 -9z"/>
<path d="M8714 7252 c-59 -82 -94 -146 -94 -170 0 -38 25 -24 50 29 22 45 29
52 60 57 87 12 93 10 117 -37 29 -58 40 -68 54 -54 19 19 -102 233 -131 233
-8 -1 -33 -26 -56 -58z"/>
<path d="M8312 7242 c-40 -77 -72 -170 -65 -188 9 -25 31 -15 38 19 10 44 58
167 66 167 3 0 9 -30 12 -67 6 -59 17 -82 39 -83 3 0 19 25 33 55 43 88 68 96
80 27 8 -48 40 -102 60 -102 16 0 20 21 6 36 -5 5 -19 37 -31 71 -12 34 -31
70 -41 79 -18 16 -21 16 -45 -7 -14 -13 -33 -37 -42 -54 l-15 -30 -11 55 c-21
100 -41 105 -84 22z"/>
<path d="M8070 7249 c-60 -32 -68 -55 -38 -116 6 -12 32 -31 59 -42 26 -12 51
-26 55 -32 11 -19 -32 -52 -73 -54 -30 -2 -38 -7 -38 -21 0 -32 45 -28 102 8
45 28 53 37 53 65 0 28 -5 33 -46 49 -59 22 -94 50 -94 75 0 21 12 28 54 33
35 4 40 10 26 35 -13 24 -14 24 -60 0z"/>
<path d="M10850 7025 c-19 -28 -46 -53 -66 -61 -39 -16 -43 -31 -12 -43 20 -7
16 -12 -45 -63 -76 -63 -162 -112 -177 -103 -12 7 -6 31 17 82 19 41 12 60
-23 69 -41 10 -100 -26 -194 -118 -81 -80 -116 -130 -105 -148 12 -19 31 -10
50 23 28 49 69 97 81 97 6 0 16 -11 22 -25 13 -29 26 -31 66 -10 26 14 31 14
47 -1 13 -12 28 -15 54 -10 47 9 155 82 224 152 l54 54 -7 -32 c-4 -18 -10
-54 -13 -80 -5 -44 -4 -48 20 -59 32 -15 67 -6 106 27 35 29 40 54 11 54 -11
0 -20 -4 -20 -8 0 -12 -59 -44 -70 -37 -9 6 -6 90 6 148 5 22 11 27 35 27 33
0 37 7 12 26 -11 7 -18 26 -18 45 0 48 -19 46 -55 -6z"/>
<path d="M10116 6994 c-3 -9 -6 -37 -6 -62 0 -88 -4 -92 -77 -92 l-64 0 3 63
c2 50 0 62 -12 62 -10 0 -18 -17 -25 -56 -5 -31 -17 -64 -25 -74 -12 -15 -12
-18 3 -27 10 -5 15 -13 12 -18 -3 -4 -7 -43 -10 -85 -5 -69 -3 -76 12 -73 15
3 19 17 23 80 3 42 7 79 10 81 3 3 34 7 70 8 l65 2 -3 -64 c-3 -49 0 -68 11
-78 9 -6 17 -8 20 -4 3 4 8 67 12 138 4 72 8 149 9 173 3 43 -15 60 -28 26z"/>
<path d="M9361 6898 c-5 -13 -14 -36 -19 -53 -4 -16 -18 -34 -30 -40 -14 -6
-20 -16 -16 -27 3 -9 -2 -31 -11 -48 l-16 -32 -24 26 c-28 30 -28 30 -75 13
-47 -16 -76 -40 -130 -109 -25 -31 -51 -57 -58 -58 -15 0 -11 51 7 95 17 40
26 115 14 115 -6 0 -18 -9 -29 -21 -10 -12 -31 -27 -46 -35 -24 -13 -32 -13
-55 0 -50 25 -88 28 -126 10 -44 -21 -66 -64 -74 -141 -5 -50 -4 -55 13 -51
11 2 21 15 25 33 11 47 33 101 48 119 18 22 42 20 96 -6 45 -22 47 -22 76 -5
29 16 30 16 25 -1 -3 -9 -10 -38 -16 -63 -22 -89 27 -119 90 -54 30 31 34 33
46 18 17 -24 36 -6 63 57 24 55 54 79 76 60 10 -8 11 -18 4 -36 -13 -36 -11
-54 6 -54 18 0 36 19 81 84 l34 50 -1 -45 c-3 -79 33 -114 90 -85 56 30 54 56
-4 39 -52 -16 -58 -3 -46 105 0 7 17 20 36 29 35 17 38 33 5 33 -15 0 -19 9
-22 47 -3 51 -22 68 -37 31z"/>
<path d="M8378 6818 c-17 -25 -27 -53 -34 -95 -3 -16 -10 -50 -15 -78 -25
-130 -32 -215 -23 -262 5 -26 14 -47 19 -46 6 2 13 51 16 110 4 60 7 109 8
110 0 1 16 9 35 18 54 26 136 118 136 152 -1 37 -20 70 -56 94 -38 25 -68 24
-86 -3z"/>
</g>
</svg>
